<?xml version="1.0" encoding="UTF-8" standalone="no"?>
<!DOCTYPE svg PUBLIC "-//W3C//DTD SVG 1.1//EN"
 "http://www.w3.org/Graphics/SVG/1.1/DTD/svg11.dtd">
<!-- Generated by graphviz version 2.40.1 (20161225.0304)
 -->
<!-- Title: dependencies Pages: 1 -->
<svg width="869pt" height="290pt"
 viewBox="0.00 0.00 869.00 290.00" xmlns="http://www.w3.org/2000/svg" xmlns:xlink="http://www.w3.org/1999/xlink">
<g id="graph0" class="graph" transform="scale(1 1) rotate(0) translate(4 286)">
<title>dependencies</title>
<polygon fill="#ffffff" stroke="transparent" points="-4,4 -4,-286 865,-286 865,4 -4,4"/>
<text text-anchor="start" x="409.5091" y="-42.4" font-family="sans-serif" font-weight="bold" font-size="14.00" fill="#000000">Legend</text>
<polygon fill="#ffffb3" stroke="transparent" points="196.5,-10 196.5,-30 216.5,-30 216.5,-10 196.5,-10"/>
<text text-anchor="start" x="220.129" y="-15.4" font-family="sans-serif" font-size="14.00" fill="#000000"> &#160;Declarations</text>
<polygon fill="#8dd3c7" stroke="transparent" points="309.5,-10 309.5,-30 329.5,-30 329.5,-10 309.5,-10"/>
<text text-anchor="start" x="333.2251" y="-15.4" font-family="sans-serif" font-size="14.00" fill="#000000"> &#160;Module</text>
<polygon fill="#80b1d3" stroke="transparent" points="395.5,-10 395.5,-30 415.5,-30 415.5,-10 395.5,-10"/>
<text text-anchor="start" x="419.2812" y="-15.4" font-family="sans-serif" font-size="14.00" fill="#000000"> &#160;Bootstrap</text>
<polygon fill="#fdb462" stroke="transparent" points="492.5,-10 492.5,-30 512.5,-30 512.5,-10 492.5,-10"/>
<text text-anchor="start" x="516.1732" y="-15.4" font-family="sans-serif" font-size="14.00" fill="#000000"> &#160;Providers</text>
<polygon fill="#fb8072" stroke="transparent" points="588.5,-10 588.5,-30 608.5,-30 608.5,-10 588.5,-10"/>
<text text-anchor="start" x="612.2258" y="-15.4" font-family="sans-serif" font-size="14.00" fill="#000000"> &#160;Exports</text>
<g id="clust1" class="cluster">
<title>cluster_AppModule</title>
<polygon fill="none" stroke="#000000" stroke-dasharray="1,5" points="8,-70 8,-274 304,-274 304,-70 8,-70"/>
</g>
<g id="clust2" class="cluster">
<title>cluster_AppModule_declarations</title>
<polygon fill="none" stroke="#000000" points="16,-78 16,-130 138,-130 138,-78 16,-78"/>
</g>
<g id="clust4" class="cluster">
<title>cluster_AppModule_imports</title>
<polygon fill="none" stroke="#000000" points="146,-78 146,-130 296,-130 296,-78 146,-78"/>
</g>
<g id="clust6" class="cluster">
<title>cluster_AppModule_bootstrap</title>
<polygon fill="none" stroke="#000000" points="87,-214 87,-266 211,-266 211,-214 87,-214"/>
</g>
<g id="clust8" class="cluster">
<title>cluster_PopoverLucyModule</title>
<polygon fill="none" stroke="#000000" stroke-dasharray="1,5" points="312,-138 312,-206 853,-206 853,-138 312,-138"/>
</g>
<g id="clust9" class="cluster">
<title>cluster_PopoverLucyModule_declarations</title>
<polygon fill="none" stroke="#000000" points="590,-146 590,-198 845,-198 845,-146 590,-146"/>
</g>
<g id="clust13" class="cluster">
<title>cluster_PopoverLucyModule_exports</title>
<polygon fill="none" stroke="#000000" points="320,-146 320,-198 582,-198 582,-146 320,-146"/>
</g>
<!-- AppComponent -->
<g id="node1" class="node">
<title>AppComponent</title>
<polygon fill="#ffffb3" stroke="#000000" points="129.9399,-122 24.0601,-122 24.0601,-86 129.9399,-86 129.9399,-122"/>
<text text-anchor="middle" x="77" y="-99.8" font-family="Times,serif" font-size="14.00" fill="#000000">AppComponent</text>
</g>
<!-- AppModule -->
<g id="node2" class="node">
<title>AppModule</title>
<polygon fill="#8dd3c7" stroke="#000000" points="190.6571,-190 187.6571,-194 166.6571,-194 163.6571,-190 107.3429,-190 107.3429,-154 190.6571,-154 190.6571,-190"/>
<text text-anchor="middle" x="149" y="-167.8" font-family="Times,serif" font-size="14.00" fill="#000000">AppModule</text>
</g>
<!-- AppComponent&#45;&gt;AppModule -->
<g id="edge1" class="edge">
<title>AppComponent&#45;&gt;AppModule</title>
<path fill="none" stroke="#000000" d="M118.4457,-122.2228C118.4457,-122.2228 118.4457,-143.7269 118.4457,-143.7269"/>
<polygon fill="#000000" stroke="#000000" points="114.9457,-143.7269 118.4457,-153.7269 121.9457,-143.727 114.9457,-143.7269"/>
</g>
<!-- AppComponent  -->
<g id="node4" class="node">
<title>AppComponent </title>
<polygon fill="#80b1d3" stroke="#000000" points="203.439,-258 94.561,-258 94.561,-222 203.439,-222 203.439,-258"/>
<text text-anchor="middle" x="149" y="-235.8" font-family="Times,serif" font-size="14.00" fill="#000000">AppComponent </text>
</g>
<!-- AppModule&#45;&gt;AppComponent  -->
<g id="edge3" class="edge">
<title>AppModule&#45;&gt;AppComponent </title>
<path fill="none" stroke="#000000" stroke-dasharray="1,5" d="M149,-190.2228C149,-190.2228 149,-211.7269 149,-211.7269"/>
<polygon fill="#000000" stroke="#000000" points="145.5001,-211.7269 149,-221.7269 152.5001,-211.727 145.5001,-211.7269"/>
</g>
<!-- PopoverLucyModule -->
<g id="node3" class="node">
<title>PopoverLucyModule</title>
<polygon fill="#8dd3c7" stroke="#000000" points="288.4748,-122 285.4748,-126 264.4748,-126 261.4748,-122 153.5252,-122 153.5252,-86 288.4748,-86 288.4748,-122"/>
<text text-anchor="middle" x="221" y="-99.8" font-family="Times,serif" font-size="14.00" fill="#000000">PopoverLucyModule</text>
</g>
<!-- PopoverLucyModule&#45;&gt;AppModule -->
<g id="edge2" class="edge">
<title>PopoverLucyModule&#45;&gt;AppModule</title>
<path fill="none" stroke="#000000" d="M172.1704,-122.2228C172.1704,-122.2228 172.1704,-143.7269 172.1704,-143.7269"/>
<polygon fill="#000000" stroke="#000000" points="168.6705,-143.7269 172.1704,-153.7269 175.6705,-143.727 168.6705,-143.7269"/>
</g>
<!-- PopoverContent  -->
<g id="node7" class="node">
<title>PopoverContent </title>
<polygon fill="#fb8072" stroke="#000000" points="574.4913,-190 463.5087,-190 463.5087,-154 574.4913,-154 574.4913,-190"/>
<text text-anchor="middle" x="519" y="-167.8" font-family="Times,serif" font-size="14.00" fill="#000000">PopoverContent </text>
</g>
<!-- PopoverLucyModule&#45;&gt;PopoverContent  -->
<g id="edge6" class="edge">
<title>PopoverLucyModule&#45;&gt;PopoverContent </title>
<path fill="none" stroke="#000000" stroke-dasharray="5,2" d="M288.6208,-113C376.5433,-113 519,-113 519,-113 519,-113 519,-143.9775 519,-143.9775"/>
<polygon fill="#000000" stroke="#000000" points="515.5001,-143.9774 519,-153.9775 522.5001,-143.9775 515.5001,-143.9774"/>
</g>
<!-- PopoverDirective  -->
<g id="node8" class="node">
<title>PopoverDirective </title>
<polygon fill="#fb8072" stroke="#000000" points="446.2408,-190 327.7592,-190 327.7592,-154 446.2408,-154 446.2408,-190"/>
<text text-anchor="middle" x="387" y="-167.8" font-family="Times,serif" font-size="14.00" fill="#000000">PopoverDirective </text>
</g>
<!-- PopoverLucyModule&#45;&gt;PopoverDirective  -->
<g id="edge7" class="edge">
<title>PopoverLucyModule&#45;&gt;PopoverDirective </title>
<path fill="none" stroke="#000000" stroke-dasharray="5,2" d="M245.9785,-122.2228C245.9785,-142.3652 245.9785,-172 245.9785,-172 245.9785,-172 317.6029,-172 317.6029,-172"/>
<polygon fill="#000000" stroke="#000000" points="317.6029,-175.5001 327.6029,-172 317.6029,-168.5001 317.6029,-175.5001"/>
</g>
<!-- PopoverContent -->
<g id="node5" class="node">
<title>PopoverContent</title>
<polygon fill="#ffffb3" stroke="#000000" points="837.4902,-190 730.5098,-190 730.5098,-154 837.4902,-154 837.4902,-190"/>
<text text-anchor="middle" x="784" y="-167.8" font-family="Times,serif" font-size="14.00" fill="#000000">PopoverContent</text>
</g>
<!-- PopoverContent&#45;&gt;PopoverLucyModule -->
<g id="edge4" class="edge">
<title>PopoverContent&#45;&gt;PopoverLucyModule</title>
<path fill="none" stroke="#000000" d="M784,-153.7521C784,-130.9821 784,-95 784,-95 784,-95 298.6311,-95 298.6311,-95"/>
<polygon fill="#000000" stroke="#000000" points="298.6312,-91.5001 288.6311,-95 298.6311,-98.5001 298.6312,-91.5001"/>
</g>
<!-- PopoverDirective -->
<g id="node6" class="node">
<title>PopoverDirective</title>
<polygon fill="#ffffb3" stroke="#000000" points="712.2409,-190 597.7591,-190 597.7591,-154 712.2409,-154 712.2409,-190"/>
<text text-anchor="middle" x="655" y="-167.8" font-family="Times,serif" font-size="14.00" fill="#000000">PopoverDirective</text>
</g>
<!-- PopoverDirective&#45;&gt;PopoverLucyModule -->
<g id="edge5" class="edge">
<title>PopoverDirective&#45;&gt;PopoverLucyModule</title>
<path fill="none" stroke="#000000" d="M655,-153.7772C655,-133.6348 655,-104 655,-104 655,-104 298.8125,-104 298.8125,-104"/>
<polygon fill="#000000" stroke="#000000" points="298.8125,-100.5001 288.8125,-104 298.8125,-107.5001 298.8125,-100.5001"/>
</g>
</g>
</svg>
