<?xml version="1.0" encoding="UTF-8" standalone="no"?>
<!DOCTYPE svg PUBLIC "-//W3C//DTD SVG 1.1//EN"
 "http://www.w3.org/Graphics/SVG/1.1/DTD/svg11.dtd">
<!-- Generated by graphviz version 2.40.1 (20161225.0304)
 -->
<!-- Title: dependencies Pages: 1 -->
<svg width="504pt" height="284pt"
 viewBox="0.00 0.00 504.00 284.00" xmlns="http://www.w3.org/2000/svg" xmlns:xlink="http://www.w3.org/1999/xlink">
<g id="graph0" class="graph" transform="scale(1 1) rotate(0) translate(4 280)">
<title>dependencies</title>
<polygon fill="#ffffff" stroke="transparent" points="-4,4 -4,-280 500,-280 500,4 -4,4"/>
<text text-anchor="start" x="227.0091" y="-42.4" font-family="sans-serif" font-weight="bold" font-size="14.00" fill="#000000">Legend</text>
<polygon fill="#ffffb3" stroke="transparent" points="14,-10 14,-30 34,-30 34,-10 14,-10"/>
<text text-anchor="start" x="37.629" y="-15.4" font-family="sans-serif" font-size="14.00" fill="#000000"> &#160;Declarations</text>
<polygon fill="#8dd3c7" stroke="transparent" points="127,-10 127,-30 147,-30 147,-10 127,-10"/>
<text text-anchor="start" x="150.7251" y="-15.4" font-family="sans-serif" font-size="14.00" fill="#000000"> &#160;Module</text>
<polygon fill="#80b1d3" stroke="transparent" points="213,-10 213,-30 233,-30 233,-10 213,-10"/>
<text text-anchor="start" x="236.7812" y="-15.4" font-family="sans-serif" font-size="14.00" fill="#000000"> &#160;Bootstrap</text>
<polygon fill="#fdb462" stroke="transparent" points="310,-10 310,-30 330,-30 330,-10 310,-10"/>
<text text-anchor="start" x="333.6732" y="-15.4" font-family="sans-serif" font-size="14.00" fill="#000000"> &#160;Providers</text>
<polygon fill="#fb8072" stroke="transparent" points="406,-10 406,-30 426,-30 426,-10 406,-10"/>
<text text-anchor="start" x="429.7258" y="-15.4" font-family="sans-serif" font-size="14.00" fill="#000000"> &#160;Exports</text>
<g id="clust1" class="cluster">
<title>cluster_PopoverLucyModule</title>
<polygon fill="none" stroke="#000000" stroke-dasharray="1,5" points="109,-70 109,-268 387,-268 387,-70 109,-70"/>
</g>
<g id="clust2" class="cluster">
<title>cluster_PopoverLucyModule_declarations</title>
<polygon fill="none" stroke="#000000" points="118,-78 118,-130 373,-130 373,-78 118,-78"/>
</g>
<g id="clust6" class="cluster">
<title>cluster_PopoverLucyModule_exports</title>
<polygon fill="none" stroke="#000000" points="117,-208 117,-260 379,-260 379,-208 117,-208"/>
</g>
<!-- PopoverContent -->
<g id="node1" class="node">
<title>PopoverContent</title>
<polygon fill="#ffffb3" stroke="#000000" points="365.4902,-122 258.5098,-122 258.5098,-86 365.4902,-86 365.4902,-122"/>
<text text-anchor="middle" x="312" y="-99.8" font-family="Times,serif" font-size="14.00" fill="#000000">PopoverContent</text>
</g>
<!-- PopoverLucyModule -->
<g id="node3" class="node">
<title>PopoverLucyModule</title>
<polygon fill="#8dd3c7" stroke="#000000" points="315.4748,-187 312.4748,-191 291.4748,-191 288.4748,-187 180.5252,-187 180.5252,-151 315.4748,-151 315.4748,-187"/>
<text text-anchor="middle" x="248" y="-164.8" font-family="Times,serif" font-size="14.00" fill="#000000">PopoverLucyModule</text>
</g>
<!-- PopoverContent&#45;&gt;PopoverLucyModule -->
<g id="edge1" class="edge">
<title>PopoverContent&#45;&gt;PopoverLucyModule</title>
<path fill="none" stroke="#000000" d="M286.9962,-122.1061C286.9962,-122.1061 286.9962,-140.991 286.9962,-140.991"/>
<polygon fill="#000000" stroke="#000000" points="283.4962,-140.9909 286.9962,-150.991 290.4962,-140.991 283.4962,-140.9909"/>
</g>
<!-- PopoverDirective -->
<g id="node2" class="node">
<title>PopoverDirective</title>
<polygon fill="#ffffb3" stroke="#000000" points="240.2409,-122 125.7591,-122 125.7591,-86 240.2409,-86 240.2409,-122"/>
<text text-anchor="middle" x="183" y="-99.8" font-family="Times,serif" font-size="14.00" fill="#000000">PopoverDirective</text>
</g>
<!-- PopoverDirective&#45;&gt;PopoverLucyModule -->
<g id="edge2" class="edge">
<title>PopoverDirective&#45;&gt;PopoverLucyModule</title>
<path fill="none" stroke="#000000" d="M210.4415,-122.1061C210.4415,-122.1061 210.4415,-140.991 210.4415,-140.991"/>
<polygon fill="#000000" stroke="#000000" points="206.9415,-140.9909 210.4415,-150.991 213.9415,-140.991 206.9415,-140.9909"/>
</g>
<!-- PopoverContent  -->
<g id="node4" class="node">
<title>PopoverContent </title>
<polygon fill="#fb8072" stroke="#000000" points="371.4913,-252 260.5087,-252 260.5087,-216 371.4913,-216 371.4913,-252"/>
<text text-anchor="middle" x="316" y="-229.8" font-family="Times,serif" font-size="14.00" fill="#000000">PopoverContent </text>
</g>
<!-- PopoverLucyModule&#45;&gt;PopoverContent  -->
<g id="edge3" class="edge">
<title>PopoverLucyModule&#45;&gt;PopoverContent </title>
<path fill="none" stroke="#000000" stroke-dasharray="5,2" d="M288.1212,-187.1061C288.1212,-187.1061 288.1212,-205.991 288.1212,-205.991"/>
<polygon fill="#000000" stroke="#000000" points="284.6212,-205.9909 288.1212,-215.991 291.6212,-205.991 284.6212,-205.9909"/>
</g>
<!-- PopoverDirective  -->
<g id="node5" class="node">
<title>PopoverDirective </title>
<polygon fill="#fb8072" stroke="#000000" points="243.2408,-252 124.7592,-252 124.7592,-216 243.2408,-216 243.2408,-252"/>
<text text-anchor="middle" x="184" y="-229.8" font-family="Times,serif" font-size="14.00" fill="#000000">PopoverDirective </text>
</g>
<!-- PopoverLucyModule&#45;&gt;PopoverDirective  -->
<g id="edge4" class="edge">
<title>PopoverLucyModule&#45;&gt;PopoverDirective </title>
<path fill="none" stroke="#000000" stroke-dasharray="5,2" d="M211.8165,-187.1061C211.8165,-187.1061 211.8165,-205.991 211.8165,-205.991"/>
<polygon fill="#000000" stroke="#000000" points="208.3165,-205.9909 211.8165,-215.991 215.3165,-205.991 208.3165,-205.9909"/>
</g>
</g>
</svg>
