<?xml version="1.0" encoding="UTF-8" standalone="no"?>
<!DOCTYPE svg PUBLIC "-//W3C//DTD SVG 1.1//EN"
 "http://www.w3.org/Graphics/SVG/1.1/DTD/svg11.dtd">
<!-- Generated by graphviz version 2.40.1 (20161225.0304)
 -->
<!-- Title: dependencies Pages: 1 -->
<svg width="510pt" height="284pt"
 viewBox="0.00 0.00 510.00 284.00" xmlns="http://www.w3.org/2000/svg" xmlns:xlink="http://www.w3.org/1999/xlink">
<g id="graph0" class="graph" transform="scale(1 1) rotate(0) translate(4 280)">
<title>dependencies</title>
<polygon fill="#ffffff" stroke="transparent" points="-4,4 -4,-280 506,-280 506,4 -4,4"/>
<text text-anchor="start" x="230.0091" y="-42.4" font-family="sans-serif" font-weight="bold" font-size="14.00" fill="#000000">Legend</text>
<polygon fill="#ffffb3" stroke="transparent" points="17,-10 17,-30 37,-30 37,-10 17,-10"/>
<text text-anchor="start" x="40.629" y="-15.4" font-family="sans-serif" font-size="14.00" fill="#000000"> &#160;Declarations</text>
<polygon fill="#8dd3c7" stroke="transparent" points="130,-10 130,-30 150,-30 150,-10 130,-10"/>
<text text-anchor="start" x="153.7251" y="-15.4" font-family="sans-serif" font-size="14.00" fill="#000000"> &#160;Module</text>
<polygon fill="#80b1d3" stroke="transparent" points="216,-10 216,-30 236,-30 236,-10 216,-10"/>
<text text-anchor="start" x="239.7812" y="-15.4" font-family="sans-serif" font-size="14.00" fill="#000000"> &#160;Bootstrap</text>
<polygon fill="#fdb462" stroke="transparent" points="313,-10 313,-30 333,-30 333,-10 313,-10"/>
<text text-anchor="start" x="336.6732" y="-15.4" font-family="sans-serif" font-size="14.00" fill="#000000"> &#160;Providers</text>
<polygon fill="#fb8072" stroke="transparent" points="409,-10 409,-30 429,-30 429,-10 409,-10"/>
<text text-anchor="start" x="432.7258" y="-15.4" font-family="sans-serif" font-size="14.00" fill="#000000"> &#160;Exports</text>
<g id="clust1" class="cluster">
<title>cluster_PopoverLucyModule</title>
<polygon fill="none" stroke="#000000" stroke-dasharray="1,5" points="8,-70 8,-268 494,-268 494,-70 8,-70"/>
</g>
<g id="clust2" class="cluster">
<title>cluster_PopoverLucyModule_declarations</title>
<polygon fill="none" stroke="#000000" points="20,-78 20,-130 481,-130 481,-78 20,-78"/>
</g>
<g id="clust7" class="cluster">
<title>cluster_PopoverLucyModule_exports</title>
<polygon fill="none" stroke="#000000" points="16,-208 16,-260 486,-260 486,-208 16,-208"/>
</g>
<!-- PopoverContent -->
<g id="node1" class="node">
<title>PopoverContent</title>
<polygon fill="#ffffb3" stroke="#000000" points="473.4902,-122 366.5098,-122 366.5098,-86 473.4902,-86 473.4902,-122"/>
<text text-anchor="middle" x="420" y="-99.8" font-family="Times,serif" font-size="14.00" fill="#000000">PopoverContent</text>
</g>
<!-- PopoverLucyModule -->
<g id="node4" class="node">
<title>PopoverLucyModule</title>
<polygon fill="#8dd3c7" stroke="#000000" points="358.4748,-187 355.4748,-191 334.4748,-191 331.4748,-187 223.5252,-187 223.5252,-151 358.4748,-151 358.4748,-187"/>
<text text-anchor="middle" x="291" y="-164.8" font-family="Times,serif" font-size="14.00" fill="#000000">PopoverLucyModule</text>
</g>
<!-- PopoverContent&#45;&gt;PopoverLucyModule -->
<g id="edge1" class="edge">
<title>PopoverContent&#45;&gt;PopoverLucyModule</title>
<path fill="none" stroke="#000000" d="M366.2644,-104C358.6947,-104 353.4289,-104 353.4289,-104 353.4289,-104 353.4289,-140.8939 353.4289,-140.8939"/>
<polygon fill="#000000" stroke="#000000" points="349.9289,-140.8938 353.4289,-150.8939 356.9289,-140.8939 349.9289,-140.8938"/>
</g>
<!-- PopoverDirective -->
<g id="node2" class="node">
<title>PopoverDirective</title>
<polygon fill="#ffffb3" stroke="#000000" points="348.2409,-122 233.7591,-122 233.7591,-86 348.2409,-86 348.2409,-122"/>
<text text-anchor="middle" x="291" y="-99.8" font-family="Times,serif" font-size="14.00" fill="#000000">PopoverDirective</text>
</g>
<!-- PopoverDirective&#45;&gt;PopoverLucyModule -->
<g id="edge2" class="edge">
<title>PopoverDirective&#45;&gt;PopoverLucyModule</title>
<path fill="none" stroke="#000000" d="M291,-122.1061C291,-122.1061 291,-140.991 291,-140.991"/>
<polygon fill="#000000" stroke="#000000" points="287.5001,-140.9909 291,-150.991 294.5001,-140.991 287.5001,-140.9909"/>
</g>
<!-- NgxPopoverImageComponent -->
<g id="node3" class="node">
<title>NgxPopoverImageComponent</title>
<polygon fill="#ffffb3" stroke="#000000" points="215.5772,-122 28.4228,-122 28.4228,-86 215.5772,-86 215.5772,-122"/>
<text text-anchor="middle" x="122" y="-99.8" font-family="Times,serif" font-size="14.00" fill="#000000">NgxPopoverImageComponent</text>
</g>
<!-- NgxPopoverImageComponent&#45;&gt;PopoverLucyModule -->
<g id="edge3" class="edge">
<title>NgxPopoverImageComponent&#45;&gt;PopoverLucyModule</title>
<path fill="none" stroke="#000000" d="M215.9275,-104C223.6521,-104 228.5712,-104 228.5712,-104 228.5712,-104 228.5712,-140.8939 228.5712,-140.8939"/>
<polygon fill="#000000" stroke="#000000" points="225.0712,-140.8938 228.5712,-150.8939 232.0712,-140.8939 225.0712,-140.8938"/>
</g>
<!-- PopoverContent  -->
<g id="node5" class="node">
<title>PopoverContent </title>
<polygon fill="#fb8072" stroke="#000000" points="478.4913,-252 367.5087,-252 367.5087,-216 478.4913,-216 478.4913,-252"/>
<text text-anchor="middle" x="423" y="-229.8" font-family="Times,serif" font-size="14.00" fill="#000000">PopoverContent </text>
</g>
<!-- PopoverLucyModule&#45;&gt;PopoverContent  -->
<g id="edge4" class="edge">
<title>PopoverLucyModule&#45;&gt;PopoverContent </title>
<path fill="none" stroke="#000000" stroke-dasharray="5,2" d="M354.3039,-187.1061C354.3039,-206.3391 354.3039,-234 354.3039,-234 354.3039,-234 357.5492,-234 357.5492,-234"/>
<polygon fill="#000000" stroke="#000000" points="357.5492,-237.5001 367.5492,-234 357.5491,-230.5001 357.5492,-237.5001"/>
</g>
<!-- PopoverDirective  -->
<g id="node6" class="node">
<title>PopoverDirective </title>
<polygon fill="#fb8072" stroke="#000000" points="350.2408,-252 231.7592,-252 231.7592,-216 350.2408,-216 350.2408,-252"/>
<text text-anchor="middle" x="291" y="-229.8" font-family="Times,serif" font-size="14.00" fill="#000000">PopoverDirective </text>
</g>
<!-- PopoverLucyModule&#45;&gt;PopoverDirective  -->
<g id="edge5" class="edge">
<title>PopoverLucyModule&#45;&gt;PopoverDirective </title>
<path fill="none" stroke="#000000" stroke-dasharray="5,2" d="M291,-187.1061C291,-187.1061 291,-205.991 291,-205.991"/>
<polygon fill="#000000" stroke="#000000" points="287.5001,-205.9909 291,-215.991 294.5001,-205.991 287.5001,-205.9909"/>
</g>
<!-- NgxPopoverImageComponent  -->
<g id="node7" class="node">
<title>NgxPopoverImageComponent </title>
<polygon fill="#fb8072" stroke="#000000" points="214.0777,-252 23.9223,-252 23.9223,-216 214.0777,-216 214.0777,-252"/>
<text text-anchor="middle" x="119" y="-229.8" font-family="Times,serif" font-size="14.00" fill="#000000">NgxPopoverImageComponent </text>
</g>
<!-- PopoverLucyModule&#45;&gt;NgxPopoverImageComponent  -->
<g id="edge6" class="edge">
<title>PopoverLucyModule&#45;&gt;NgxPopoverImageComponent </title>
<path fill="none" stroke="#000000" stroke-dasharray="5,2" d="M227.6962,-187.1061C227.6962,-206.3391 227.6962,-234 227.6962,-234 227.6962,-234 224.3679,-234 224.3679,-234"/>
<polygon fill="#000000" stroke="#000000" points="224.3679,-230.5001 214.3679,-234 224.3678,-237.5001 224.3679,-230.5001"/>
</g>
</g>
</svg>
